<svg width="24" height="16" viewBox="0 0 24 16" fill="none" xmlns="http://www.w3.org/2000/svg">
<path opacity="0.4" d="M6.93664 9.58711L2.00434 10.0233C0.897444 10.0233 0 9.11713 0 7.99945C0 6.88177 0.897444 5.97558 2.00434 5.97558L6.93664 6.41179C7.805 6.41179 8.50899 7.12264 8.50899 7.99945C8.50899 8.87773 7.805 9.58711 6.93664 9.58711Z" fill="#163A34"/>
<path d="M23.4995 9.50688C23.4224 9.58473 23.1344 9.91371 22.8638 10.1869C21.2857 11.8979 17.165 14.6958 15.0094 15.552C14.6821 15.6886 13.8545 15.9794 13.4109 16C12.9876 16 12.5832 15.9016 12.1978 15.7077C11.7163 15.436 11.3323 15.0072 11.12 14.5019C10.9847 14.1524 10.7723 13.1023 10.7723 13.0832C10.5614 11.9361 10.4465 10.0709 10.4465 8.00881C10.4465 6.04663 10.5614 4.25776 10.7345 3.09161C10.7534 3.07105 10.9658 1.76831 11.1971 1.32183C11.6203 0.505231 12.448 -4.76837e-07 13.3338 -4.76837e-07H13.4109C13.9883 0.0190926 15.2014 0.525794 15.2014 0.543418C17.2421 1.39967 21.2653 4.06242 22.8827 5.8322C22.8827 5.8322 23.3395 6.2875 23.5373 6.57096C23.8456 6.97925 23.9998 7.48449 23.9998 7.98972C23.9998 8.5537 23.8267 9.07802 23.4995 9.50688Z" fill="#163A34"/>
</svg>
