<svg width="25" height="22" viewBox="0 0 25 22" fill="none" xmlns="http://www.w3.org/2000/svg">
<path d="M5.37573 1.48087C8.24036 3.63146 11.3216 7.99195 12.4529 10.332C13.5842 7.99212 16.6653 3.63141 19.53 1.48087C21.597 -0.0709055 24.946 -1.27158 24.946 2.54903C24.946 3.31206 24.5085 8.95887 24.2519 9.87561C23.3601 13.0628 20.1101 13.8757 17.2192 13.3837C22.2724 14.2438 23.5579 17.0925 20.7817 19.9413C15.5092 25.3517 13.2036 18.5838 12.6125 16.8497C12.5042 16.5317 12.4535 16.383 12.4528 16.5095C12.452 16.383 12.4014 16.5317 12.2931 16.8497C11.7023 18.5838 9.39669 25.3519 4.12386 19.9413C1.34762 17.0925 2.63308 14.2436 7.68642 13.3837C4.79543 13.8757 1.5454 13.0628 0.653653 9.87561C0.397061 8.95879 -0.0404053 3.31198 -0.0404053 2.54903C-0.0404053 -1.27158 3.3087 -0.0709055 5.37558 1.48087H5.37573Z" fill="#163A34"/>
</svg>
