<svg width="28" height="32" viewBox="0 0 28 32" fill="none" xmlns="http://www.w3.org/2000/svg">
<path d="M16.1431 2.4979V11.3129L10.7881 20.358H2.49319C1.55153 20.358 0.701526 19.8363 0.273192 18.9979C-0.153474 18.1596 -0.0768074 17.1646 0.478193 16.403L11.6365 1.0329C12.2831 0.1429 13.3748 -0.213767 14.4215 0.1279C15.4681 0.466233 16.1431 1.39623 16.1431 2.4979Z" fill="#49AC9B"/>
<path opacity="0.4" d="M10.9663 29.1953V20.3803L16.3213 11.3353H24.6163C25.5579 11.3353 26.4079 11.857 26.8363 12.6953C27.2629 13.5336 27.1863 14.5286 26.6313 15.2903L15.4729 30.6603C14.8263 31.5503 13.7346 31.907 12.6879 31.5653C11.6413 31.227 10.9663 30.297 10.9663 29.1953Z" fill="#49AC9B"/>
</svg>
