<svg width="16" height="16" viewBox="0 0 16 16" fill="none" xmlns="http://www.w3.org/2000/svg">
<path d="M5.20668 0.183056C4.9626 -0.0610188 4.56688 -0.0610188 4.3228 0.183056C4.07872 0.42714 4.07872 0.822864 4.3228 1.06695C4.46818 1.21233 4.46752 1.44708 4.32326 1.59104C3.69023 2.22407 3.6891 3.25146 4.32326 3.88429C4.56759 4.12811 4.96332 4.1277 5.20714 3.88336C5.45097 3.63903 5.45055 3.24331 5.20622 2.99948C5.06196 2.85552 5.06129 2.62077 5.20668 2.47539C5.84038 1.84251 5.83956 0.81594 5.20668 0.183056Z" fill="#163A34"/>
<path d="M13.446 2.99179C13.6901 2.74771 13.6901 2.35199 13.446 2.1079C13.202 1.86383 12.8063 1.86383 12.5622 2.1079C11.9291 2.74094 11.9285 3.76786 12.5626 4.40069C12.807 4.64452 13.2027 4.6441 13.4465 4.39977C13.6904 4.15544 13.69 3.75971 13.4456 3.51589C13.3014 3.37193 13.3007 3.13718 13.446 2.99179Z" fill="#163A34"/>
<path d="M1.48768 3.51639C1.2436 3.27231 0.847867 3.27231 0.603792 3.51639C0.359717 3.76047 0.359717 4.1562 0.603792 4.40028C0.749176 4.54566 0.748517 4.78041 0.604251 4.92437C0.359926 5.1682 0.359509 5.56392 0.603334 5.80826C0.847159 6.05259 1.24288 6.05301 1.48722 5.80918C2.12137 5.17635 2.12071 4.14942 1.48768 3.51639Z" fill="#163A34"/>
<path fill-rule="evenodd" clip-rule="evenodd" d="M7.98421 3.30424C7.02955 3.30424 6.25735 4.07845 6.25735 5.03194V5.59979C3.10141 6.26891 0.732264 8.72881 0.910514 11.6949C0.923739 11.9149 1.10602 12.0866 1.32643 12.0866H14.6428C14.8632 12.0866 15.0455 11.9149 15.0587 11.6948C15.2362 8.72864 12.8668 6.26867 9.71113 5.59969V5.03194C9.71113 4.07815 8.9378 3.30424 7.98421 3.30424ZM8.46113 5.43335V5.03194C8.46113 4.76791 8.24688 4.55424 7.98421 4.55424C7.72113 4.55424 7.50738 4.76761 7.50738 5.03194V5.43338C7.66521 5.42445 7.82438 5.41991 7.98463 5.41991C8.14455 5.41991 8.30346 5.42444 8.46113 5.43335Z" fill="#163A34"/>
<path d="M0.31621 13.1558C0.484551 13.0207 0.69076 12.9683 0.901135 12.9683H15.0678C15.2782 12.9683 15.4844 13.0207 15.6528 13.1558C15.8214 13.2912 15.9061 13.4728 15.943 13.6443C16.0119 13.9645 15.9323 14.3281 15.8364 14.616C15.568 15.4211 14.8135 15.9649 13.9646 15.9649H2.00436C1.15538 15.9649 0.40096 15.4213 0.132593 14.6162C0.0367597 14.3283 -0.0429402 13.9645 0.0259015 13.6443C0.0627932 13.4728 0.147601 13.2912 0.31621 13.1558Z" fill="#163A34"/>
</svg>
