<svg width="1707" height="950" viewBox="0 0 1707 950" fill="none" xmlns="http://www.w3.org/2000/svg">
<path opacity="0.4" d="M84.3143 926.888C50.4052 816.485 17.3055 697.324 45.7717 581.727C80.792 439.4 194.777 362.47 339.097 368.795C551.926 378.146 722.294 542.213 921.846 600.446C1336.52 721.485 1620.11 399.076 1705.55 23.5167C1710.81 0.411371 1675.34 -10.259 1670.04 13.0273C1616.99 246.271 1495.42 487.726 1253.19 568.045C996.879 653.016 779.982 490.869 558.491 390.146C421.892 328.014 241.711 294.06 114.874 397.259C-48.4439 530.137 -5.34611 761.839 48.4133 935.991C55.4403 958.702 91.3222 949.69 84.3143 926.888Z" fill="#697DDB"/>
</svg>
