<svg width="161" height="148" viewBox="0 0 161 148" fill="none" xmlns="http://www.w3.org/2000/svg">
<path d="M143.712 2.93301C143.712 2.93301 108.671 37.974 104.117 42.556C99.9341 46.7111 0.00848771 146.901 0.00848771 146.901L0 146.909C0 146.909 31.4226 157.307 109.362 79.3557C96.2876 56.1336 117.144 52.3578 124.861 48.9108C137.487 43.2696 157.262 16.4431 157.262 16.4431L157.208 16.4066C157.267 16.3757 157.315 16.356 157.366 16.2998C161.13 12.5746 161.13 6.50087 157.371 2.79814C153.66 -0.929858 147.569 -0.935547 143.864 2.79807C143.816 2.81774 143.76 2.87394 143.763 2.9217L143.712 2.93301Z" fill="#D0DCD9"/>
<path d="M46.9688 74.3576C59.7425 69.007 60.5678 89.8806 63.9883 95.9179C65.7913 99.0969 68.3811 102.377 71.9579 103.667C84.4091 108.163 103.821 83.5618 108.493 104.123C110.831 114.418 107.929 125.054 117.452 132.713C123.965 137.953 132.049 137.868 138.511 133.002C141.109 131.044 137.826 127.191 135.25 129.157C125.202 136.831 116.652 123.783 114.429 115.952C113.316 112.034 113.923 108.143 113.539 104.194C113.187 100.574 112.773 97.5302 110.438 94.5938C105.802 88.7604 97.5629 88.4067 91.1461 91.0982C89.5808 91.7529 88.2153 92.8496 86.7012 93.5826C82.6441 95.5438 74.5442 98.2658 70.0362 95.9901C65.9725 93.9406 64.761 79.1891 61.8809 75.0147C57.9408 69.3054 51.9069 66.8313 45.4828 69.5411C42.5151 70.7907 43.9697 75.6127 46.9688 74.3576Z" fill="#49AC9B"/>
</svg>
