<svg width="155" height="214" viewBox="0 0 155 214" fill="none" xmlns="http://www.w3.org/2000/svg">
<path d="M126.616 79.6116L154.658 23.5728L149.116 19.9417L116.793 72.816C115.819 74.401 113.729 74.8699 112.168 73.8502L111.113 73.1559C109.591 72.156 109.166 70.1153 110.163 68.5905L144.098 16.6573L139.225 13.4934L105.056 65.7837C104.06 67.3085 102.015 67.7404 100.486 66.7416C98.9613 65.7453 98.5296 63.6999 99.5284 62.1715L133.702 9.87417L128.333 6.37642L94.1481 58.661C93.1517 60.1858 91.1087 60.614 89.5803 59.6153L88.6697 59.0203C87.1092 58.0006 86.7041 55.8911 87.7714 54.3669L123.671 3.30416L118.614 0L80.1628 45.4152C80.1628 45.4152 78.7971 47.1777 78.3351 47.8848C73.3532 55.5089 73.1243 64.4451 75.0601 72.6811C76.6671 79.5098 78.8537 84.9133 76.3649 91.7868C71.3403 102.486 58.9874 114.232 51.7678 123.237C26.2816 155.019 1.79301 195.295 1.79301 195.295L1.81442 195.309C1.76761 195.365 1.70902 195.423 1.66468 195.491C-1.76782 200.744 0.378022 208.277 5.62878 211.728C5.62878 211.728 5.65018 211.742 5.71089 211.782C10.9781 215.224 18.8572 214.232 22.2944 208.972C22.3387 208.904 22.3759 208.831 22.4013 208.761L22.4227 208.775C22.4227 208.775 55.7259 157.575 68.348 134.071C73.6639 124.174 79.2383 108.687 86.6752 99.6451C92.0666 95.3715 99.1536 94.0556 105.715 92.554C113.611 90.7479 120.557 87.8928 125.572 81.1617C125.898 80.7327 126.616 79.6116 126.616 79.6116Z" fill="#D0DCD9"/>
<path d="M7.77266 80.9525C25.9748 65.3656 54.4363 69.5543 62.4582 94.1577C65.7898 104.389 63.8453 115.774 68.2712 125.76C73.7176 138.047 86.1783 145.344 98.4498 137.443C102.775 134.654 98.9586 127.602 94.5796 130.393C72.315 144.592 73.3869 101.788 70.1106 91.7C67.2571 82.9134 61.7293 75.4924 54.1644 70.2401C37.7638 58.8597 17.6579 61.8807 3.03251 74.4605C-0.871653 77.816 3.83629 84.3245 7.77266 80.9525Z" fill="#FE9F6B"/>
</svg>
