<svg width="33" height="25" viewBox="0 0 33 25" fill="none" xmlns="http://www.w3.org/2000/svg">
<path fill-rule="evenodd" clip-rule="evenodd" d="M5.41833 18.5758H1.25C0.56 18.5758 0 19.1358 0 19.8258C0 20.5158 0.56 21.0758 1.25 21.0758H5.41833C6.10833 21.0758 6.66833 20.5158 6.66833 19.8258C6.66833 19.1358 6.10833 18.5758 5.41833 18.5758Z" fill="#697DDB"/>
<path fill-rule="evenodd" clip-rule="evenodd" d="M6.03833 2.64319H1.25C0.56 2.64319 0 3.20319 0 3.89319C0 4.58319 0.56 5.14319 1.25 5.14319H6.03833C6.72833 5.14319 7.28833 4.58319 7.28833 3.89319C7.28833 3.20319 6.72833 2.64319 6.03833 2.64319Z" fill="#697DDB"/>
<path fill-rule="evenodd" clip-rule="evenodd" d="M1.25 13.0762H3.63C4.32 13.0762 4.88 12.5162 4.88 11.8262C4.88 11.1362 4.32 10.5762 3.63 10.5762H1.25C0.56 10.5762 0 11.1362 0 11.8262C0 12.5162 0.56 13.0762 1.25 13.0762Z" fill="#697DDB"/>
<path fill-rule="evenodd" clip-rule="evenodd" d="M32.4451 22.6747L29.8434 20.0797C29.3301 19.5681 28.5001 19.5681 27.9901 20.0831C27.4784 20.5947 27.4784 21.4264 27.9918 21.9381L30.5934 24.5314C30.8501 24.7864 31.1851 24.9147 31.5201 24.9147C31.8551 24.9147 32.1918 24.7864 32.4484 24.5297C32.9601 24.0164 32.9584 23.1864 32.4451 22.6747Z" fill="#697DDB"/>
<path opacity="0.4" fill-rule="evenodd" clip-rule="evenodd" d="M19.5156 0C13.4189 0 8.479 4.94333 8.479 11.0417C8.479 17.1384 13.4189 22.0817 19.5156 22.0817C25.6123 22.0817 30.5539 17.1384 30.5539 11.0417C30.5539 4.94333 25.6123 0 19.5156 0Z" fill="#697DDB"/>
</svg>
