<svg width="18" height="18" viewBox="0 0 18 18" fill="none" xmlns="http://www.w3.org/2000/svg">
<path fill-rule="evenodd" clip-rule="evenodd" d="M1.66667 7.53165C1.66667 4.2975 4.29833 1.66667 7.53247 1.66667C10.7658 1.66667 13.3975 4.2975 13.3975 7.53165C13.3975 10.7658 10.7658 13.3975 7.53247 13.3975C4.29833 13.3975 1.66667 10.7658 1.66667 7.53165ZM17.0791 16.2475L13.2466 12.425C14.3766 11.1075 15.0641 9.39998 15.0641 7.53165C15.0641 3.37917 11.685 0 7.53247 0C3.37917 0 0 3.37917 0 7.53165C0 11.685 3.37917 15.0641 7.53247 15.0641C9.21747 15.0641 10.77 14.5008 12.0258 13.5616L15.9025 17.4275L17.0791 16.2475Z" fill="#163A34"/>
</svg>
