<svg width="17" height="15" viewBox="0 0 17 15" fill="none" xmlns="http://www.w3.org/2000/svg">
<path fill-rule="evenodd" clip-rule="evenodd" d="M10.7945 10.584C10.6778 10.784 10.4695 10.8923 10.2612 10.8923C10.1528 10.8923 10.0362 10.859 9.93616 10.8007L7.66116 9.434C7.4695 9.32567 7.35283 9.11733 7.35283 8.90067V5.959C7.35283 5.60897 7.63616 5.33397 7.97783 5.33397C8.3195 5.33397 8.60283 5.60897 8.60283 5.959V8.54233L10.5778 9.734C10.8778 9.909 10.9778 10.2923 10.7945 10.584ZM8.1195 1.6923C4.45286 1.6923 1.46952 4.67563 1.46952 8.34233C1.46952 12.009 4.45286 14.9923 8.1195 14.9923C11.7862 14.9923 14.7695 12.009 14.7695 8.34233C14.7695 4.67563 11.7862 1.6923 8.1195 1.6923Z" fill="#163A34"/>
<path fill-rule="evenodd" clip-rule="evenodd" d="M3.65687 1.16504C3.95104 0.983378 4.04187 0.598377 3.8602 0.305044C3.6777 0.0108775 3.2927 -0.0799558 3.0002 0.101711C1.85604 0.807544 0.856036 1.76004 0.108536 2.85588C-0.0856305 3.14088 -0.0122971 3.53004 0.272703 3.72421C0.380203 3.79838 0.502703 3.83338 0.624369 3.83338C0.824369 3.83338 1.0202 3.73754 1.14104 3.56088C1.79104 2.60838 2.66104 1.78004 3.65687 1.16504Z" fill="#163A34"/>
<path fill-rule="evenodd" clip-rule="evenodd" d="M16.1414 2.8563C15.3864 1.74797 14.383 0.792137 13.2405 0.0921367C12.9464 -0.0878633 12.5614 0.0038034 12.3805 0.29797C12.2005 0.59297 12.2922 0.977137 12.5864 1.15797C13.5805 1.7663 14.4522 2.59714 15.1089 3.56047C15.2297 3.73797 15.4255 3.83297 15.6255 3.83297C15.7464 3.83297 15.8689 3.79797 15.9772 3.72464C16.2622 3.53047 16.3355 3.1413 16.1414 2.8563Z" fill="#163A34"/>
</svg>
