<svg width="12" height="16" viewBox="0 0 12 16" fill="none" xmlns="http://www.w3.org/2000/svg">
<path fill-rule="evenodd" clip-rule="evenodd" d="M5.65001 7.51996C7.73001 7.51996 9.41001 5.83996 9.41001 3.76C9.49001 1.68 7.81001 0 5.65001 0C3.57004 0 1.89004 1.68 1.89004 3.76C1.89004 5.83996 3.57004 7.51996 5.65001 7.51996Z" fill="#163A34"/>
<path fill-rule="evenodd" clip-rule="evenodd" d="M11.1701 12.5612C10.9301 11.6812 10.4501 10.8813 9.49008 10.2413C8.69008 9.68125 7.41008 9.28125 5.65008 9.28125C2.21012 9.28125 0.530117 10.8812 0.0501169 12.5612C-0.109883 13.0412 0.130117 13.5212 0.530117 13.7612C1.97012 14.7212 3.73012 15.2013 5.65008 15.2013C7.49008 15.2013 9.25008 14.6412 10.6901 13.7612C11.0901 13.5212 11.3301 13.0412 11.1701 12.5612Z" fill="#163A34"/>
</svg>
